<svg width="35" height="21" viewBox="0 0 35 21" fill="none" xmlns="http://www.w3.org/2000/svg">
<g id="Group">
<g id="Group_2">
<path id="Vector" d="M8.69989 7.19999C9.09989 7.19999 9.4999 7.19999 9.8999 7.29999C11.3999 7.59999 12.4999 8.89999 12.4999 10.4C12.4999 12 11.4999 13.2 9.8999 13.5C6.2999 14.2 1.79985 11.3 1.59985 11.2L0.299865 10.4L1.59985 9.59999C1.79985 9.49999 5.39989 7.19999 8.69989 7.19999ZM9.49988 11.7C10.1999 11.6 10.4999 11 10.4999 10.5C10.4999 9.99999 10.1999 9.39999 9.49988 9.29999C7.89988 8.99999 5.69985 9.79999 4.09985 10.5C5.69985 11.2 7.79988 12 9.49988 11.7Z" fill="#560505"/>
</g>
<g id="Group_3">
<path id="Vector_2" d="M16.0999 9.50008C16.1999 9.50008 16.2999 9.50008 16.2999 9.50008C16.8999 9.50007 20.4999 9.70007 22.9999 14.1001C23.7999 15.4001 24.7999 16.7001 25.6999 17.4001L25.8999 17.5001C26.9999 18.4001 28.3999 18.6001 29.6999 18.2001C30.8999 17.8001 31.7999 16.9001 32.1999 15.6001C32.1999 15.5001 32.1999 15.4001 32.2999 15.3001C32.4999 14.4001 32.1999 13.5001 31.6999 12.8001C30.8999 11.7001 29.7999 11.2001 28.7999 11.5001C27.8999 11.7001 27.1999 12.5001 26.9999 13.4001C26.8999 13.8001 26.9999 14.3001 27.2999 14.7001C27.6999 15.3001 28.2999 15.6001 28.7999 15.4001C29.2999 15.3001 29.5999 14.9001 29.6999 14.5001C29.7999 14.1001 29.4999 13.7001 29.0999 13.6001L29.4999 11.7001C30.8999 12.0001 31.8999 13.4001 31.5999 14.9001C31.3999 16.1001 30.3999 17.1001 29.1999 17.4001C27.8999 17.7001 26.5999 17.1001 25.6999 15.9001C25.0999 15.1001 24.8999 14.0001 24.9999 13.1001C25.2999 11.4001 26.5999 10.1001 28.2999 9.70007C30.0999 9.30007 31.8999 10.1001 33.1999 11.7001C34.0999 12.9001 34.3999 14.4001 34.1999 15.8001C34.1999 15.9001 34.0999 16.1001 34.0999 16.2001C33.5999 18.1001 32.1999 19.5001 30.3999 20.1001C28.4999 20.7001 26.3999 20.3001 24.7999 19.1001L24.6999 19.0001C23.5999 18.2001 22.4999 16.7001 21.5999 15.1001C20.1999 12.6001 18.4999 11.8001 17.3999 11.6001C17.7999 11.9001 18.0999 12.3001 18.2999 12.7001C18.5999 13.6001 18.3999 14.6001 17.5999 15.4001C17.0999 15.9001 16.2999 16.2001 15.5999 16.1001C13.9999 16.0001 12.6999 14.5001 12.7999 12.8001C12.8999 11.8001 13.2999 11.0001 13.9999 10.3001C14.3999 9.80008 15.1999 9.50008 16.0999 9.50008ZM15.4999 14.1001C15.5999 14.1001 15.7999 14.0001 15.8999 13.9001C16.0999 13.7001 16.1999 13.5001 16.0999 13.3001C16.0999 13.2001 15.9999 13.1001 15.7999 13.1001L15.8999 11.4001C15.4999 11.4001 15.1999 11.5001 14.8999 11.8001C14.5999 12.1001 14.3999 12.5001 14.2999 12.9001C14.4999 13.5001 14.8999 14.1001 15.4999 14.1001Z" fill="#560505"/>
</g>
<g id="Group_4">
<path id="Vector_3" d="M28.2999 0.499996C28.8999 0.499996 29.4999 0.599995 30.1999 0.799995C31.9999 1.4 33.3999 2.9 33.8999 4.7C33.8999 4.8 33.9999 5 33.9999 5.1C34.2999 6.5 33.8999 8 32.9999 9.2C31.6999 10.9 29.8999 11.7 28.0999 11.2C26.3999 10.8 25.1999 9.5 24.7999 7.8C24.5999 6.8 24.8999 5.8 25.4999 5C26.3999 3.8 27.6999 3.2 28.9999 3.5C30.1999 3.8 31.0999 4.7 31.3999 6C31.6999 7.5 30.6999 8.9 29.2999 9.2L28.8999 7.3C29.2999 7.2 29.5999 6.8 29.4999 6.4C29.3999 5.9 29.0999 5.6 28.5999 5.5C28.0999 5.4 27.4999 5.6 27.0999 6.2C26.7999 6.6 26.6999 7.1 26.7999 7.5C26.9999 8.4 27.6999 9.2 28.5999 9.4C29.5999 9.6 30.6999 9.2 31.4999 8.1C32.0999 7.3 32.2999 6.5 32.0999 5.6C32.0999 5.5 32.0999 5.4 31.9999 5.3C31.6999 4.09999 30.7999 3.1 29.4999 2.7C28.1999 2.3 26.7999 2.5 25.6999 3.4L25.5999 3.5C24.6999 4.2 23.6999 5.4 22.8999 6.8C20.3999 11.2 16.7999 11.4 16.1999 11.4C15.2999 11.5 14.3999 11.2 13.6999 10.6C12.9999 10 12.4999 9.1 12.4999 8.1C12.3999 6.4 13.5999 5 15.2999 4.8C15.9999 4.7 16.7999 5 17.2999 5.5C18.0999 6.3 18.2999 7.2 17.9999 8.2C17.7999 8.7 17.4999 9.1 17.0999 9.3C18.0999 9.1 19.8999 8.3 21.1999 5.8C22.0999 4.2 23.2999 2.8 24.3999 1.9L24.4999 1.8C25.5999 0.999995 26.9999 0.499996 28.2999 0.499996ZM15.9999 9.5L15.8999 7.8C16.0999 7.8 16.1999 7.7 16.1999 7.6C16.2999 7.4 16.1999 7.2 15.9999 7C15.8999 6.9 15.6999 6.8 15.4999 6.8C14.8999 6.9 14.4999 7.4 14.4999 8C14.4999 8.4 14.6999 8.8 15.0999 9.1C15.2999 9.3 15.6999 9.5 15.9999 9.5Z" fill="#560505"/>
</g>
</g>
</svg>
