<svg width="31" height="31" viewBox="0 0 31 31" fill="none" xmlns="http://www.w3.org/2000/svg">
<path id="Vector" d="M2.25992 0.368652C1.75826 0.368652 1.27715 0.556207 0.922419 0.890057C0.567692 1.22391 0.368408 1.6767 0.368408 2.14884C0.368408 2.62097 0.567692 3.07377 0.922419 3.40762C1.27715 3.74147 1.75826 3.92902 2.25992 3.92902H4.56756L5.14447 6.10441C5.1502 6.12946 5.15651 6.15439 5.16339 6.17918L7.73206 15.8456L6.04294 17.4335C3.65964 19.6765 5.34686 23.5111 8.71754 23.5111H24.958C25.4597 23.5111 25.9408 23.3235 26.2955 22.9897C26.6503 22.6558 26.8496 22.203 26.8496 21.7309C26.8496 21.2587 26.6503 20.806 26.2955 20.4721C25.9408 20.1383 25.4597 19.9507 24.958 19.9507H8.71754L10.609 18.1705H23.0665C23.4177 18.1703 23.7619 18.0781 24.0606 17.9043C24.3592 17.7304 24.6006 17.4817 24.7575 17.1861L30.4321 6.50495C30.5761 6.23362 30.6442 5.93213 30.6297 5.62911C30.6152 5.32609 30.5186 5.03158 30.3492 4.77353C30.1798 4.51548 29.9432 4.30245 29.6617 4.15465C29.3803 4.00685 29.0634 3.92919 28.7411 3.92902H8.46407L7.87771 1.71625C7.77524 1.33129 7.53903 0.989596 7.20661 0.745438C6.87419 0.50128 6.46461 0.368663 6.04294 0.368652H2.25992ZM26.8496 27.9615C26.8496 28.6697 26.5506 29.3489 26.0185 29.8497C25.4865 30.3505 24.7648 30.6318 24.0123 30.6318C23.2598 30.6318 22.5381 30.3505 22.006 29.8497C21.4739 29.3489 21.175 28.6697 21.175 27.9615C21.175 27.2533 21.4739 26.5741 22.006 26.0734C22.5381 25.5726 23.2598 25.2913 24.0123 25.2913C24.7648 25.2913 25.4865 25.5726 26.0185 26.0734C26.5506 26.5741 26.8496 27.2533 26.8496 27.9615ZM8.88021 30.6318C9.6327 30.6318 10.3544 30.3505 10.8865 29.8497C11.4185 29.3489 11.7175 28.6697 11.7175 27.9615C11.7175 27.2533 11.4185 26.5741 10.8865 26.0734C10.3544 25.5726 9.6327 25.2913 8.88021 25.2913C8.12772 25.2913 7.40605 25.5726 6.87396 26.0734C6.34187 26.5741 6.04294 27.2533 6.04294 27.9615C6.04294 28.6697 6.34187 29.3489 6.87396 29.8497C7.40605 30.3505 8.12772 30.6318 8.88021 30.6318Z" fill="#560505"/>
</svg>
