<svg width="81" height="23" viewBox="0 0 81 23" fill="none" xmlns="http://www.w3.org/2000/svg">
<g id="Group">
<g id="Group_2">
<g id="Group_3">
<path id="Vector" d="M45.8409 -0.200022C45.9409 -0.200022 46.1409 -0.200023 46.2409 -0.200023C47.0409 -0.200023 54.0409 -0.100023 58.8409 8.59998C60.4409 11.4 62.5409 14.1 64.4409 15.5L64.7409 15.7C67.1409 17.6 70.3409 18.2 73.2409 17.3C76.0409 16.4 78.1409 14.2 78.8409 11.4C78.9409 11.2 78.9409 11 79.0409 10.7C79.4409 8.69998 78.9409 6.59997 77.6409 4.89998C75.7409 2.39998 73.3409 1.29998 70.8409 1.89998C68.6409 2.39998 66.9409 4.19998 66.4409 6.49998C66.2409 7.69998 66.5409 8.89998 67.2409 9.89998C68.3409 11.4 69.8409 12.1 71.2409 11.8C72.5409 11.5 73.5409 10.5 73.7409 9.09998C74.0409 7.69998 73.1409 6.39998 71.7409 6.09998L72.1409 4.19998C74.5409 4.69998 76.1409 6.99998 75.6409 9.39998C75.2409 11.5 73.6409 13.1 71.6409 13.6C69.4409 14.1 67.1409 13.1 65.6409 11C64.5409 9.59998 64.1409 7.79998 64.4409 6.09998C65.0409 3.09998 67.3409 0.699977 70.2409 -2.38549e-05C73.4409 -0.700025 76.7409 0.699976 79.0409 3.69998C80.6409 5.89998 81.3409 8.49998 80.8409 11.1C80.7409 11.4 80.7409 11.6 80.6409 11.9C79.7409 15.4 77.2409 18 73.7409 19.1C70.1409 20.3 66.3409 19.5 63.3409 17.2L63.0409 17C60.9409 15.4 58.6409 12.6 56.9409 9.49998C52.5409 1.49998 46.1409 1.69998 46.0409 1.69998L45.9409 1.69998L45.8409 1.69998C44.7409 1.59998 43.6409 1.99998 42.8409 2.69998C41.9409 3.39998 41.4409 4.49998 41.3409 5.59998C41.2409 7.39998 42.5409 8.89998 44.2409 9.09998C44.8409 9.19998 45.5409 8.89998 45.9409 8.39998C46.6409 7.69998 46.9409 6.89998 46.6409 6.09998C46.4409 5.49998 45.8409 4.99998 45.2409 4.99998L45.4409 3.09998C46.8409 3.19998 48.0409 4.19998 48.5409 5.49998C49.0409 6.99998 48.6409 8.59998 47.3409 9.79998C46.4409 10.7 45.2409 11.1 44.0409 11C41.2409 10.8 39.1409 8.29998 39.4409 5.39998C39.5409 3.69998 40.3409 2.19998 41.6409 1.09998C42.9409 0.29998 44.3409 -0.200022 45.8409 -0.200022Z" fill="#560505"/>
</g>
</g>
<g id="Group_4">
<path id="Vector_2" d="M35.5409 -0.199882C36.9409 -0.199882 38.3409 0.300118 39.4409 1.30012C40.7409 2.40012 41.4409 3.90012 41.6409 5.60012C41.8409 8.40012 39.7409 10.9001 37.0409 11.2001C35.8409 11.3001 34.6409 10.9001 33.7409 10.0001C32.4409 8.80012 32.0409 7.10012 32.5409 5.70012C33.0409 4.40012 34.2409 3.40012 35.6409 3.30012L35.8408 5.20012C35.2408 5.30012 34.6409 5.70012 34.4409 6.30012C34.1409 7.00012 34.4409 7.90012 35.1409 8.60012C35.6409 9.10012 36.2408 9.30012 36.8408 9.30012C38.5408 9.10012 39.8409 7.60012 39.7409 5.80012C39.6409 4.60012 39.1409 3.60012 38.2409 2.90012C37.4409 2.20012 36.3409 1.80012 35.2409 1.90012L35.1409 1.90012L35.0409 1.90012C34.7409 1.90012 28.5409 1.80012 24.1409 9.70012C22.4409 12.8001 20.1409 15.6001 18.0409 17.2001L17.8408 17.4001C14.9408 19.8001 11.0409 20.5001 7.44085 19.3001C3.94085 18.2001 1.44086 15.5001 0.540859 12.1001C0.44086 11.8001 0.440845 11.6001 0.340846 11.3001C-0.159154 8.70012 0.440863 6.10012 2.14086 3.90012C4.44086 0.800121 7.74085 -0.599877 10.9409 0.200122C13.9409 0.900122 16.2409 3.30012 16.7409 6.30012C17.0409 8.00012 16.6409 9.80012 15.5409 11.2001C13.9409 13.3001 11.7409 14.3001 9.54086 13.8001C7.54086 13.3001 5.94086 11.7001 5.54086 9.60012C5.04086 7.20012 6.64086 4.80012 9.04086 4.40012L9.44085 6.30012C8.14085 6.60012 7.24085 7.90012 7.44085 9.30012C7.74085 10.6001 8.74085 11.7001 9.94085 12.0001C11.3409 12.3001 12.8409 11.7001 13.9409 10.1001C14.6409 9.10012 14.9409 7.90012 14.7409 6.70012C14.3409 4.40012 12.5408 2.60012 10.3408 2.10012C7.84085 1.50012 5.44086 2.60012 3.54086 5.10012C2.24086 6.80012 1.74086 8.90012 2.14086 10.9001C2.14086 11.1001 2.24085 11.4001 2.34085 11.6001C3.04085 14.4001 5.14085 16.6001 7.94085 17.5001C10.8409 18.5001 14.0409 17.9001 16.4409 15.9001L16.7409 15.7001C18.6409 14.3001 20.7408 11.6001 22.3408 8.80012C27.1408 0.10012 34.1409 0.000118912 34.9409 0.000118843C35.2409 -0.199882 35.3409 -0.199882 35.5409 -0.199882Z" fill="#560505"/>
</g>
<g id="Group_5">
<path id="Vector_3" d="M40.641 10.7C42.241 10.7 43.441 11.7 43.741 13.3C44.441 16.9 41.5409 21.5 41.4409 21.7L40.641 23L39.8409 21.7C39.7409 21.5 36.8409 16.9 37.5409 13.3C37.8409 11.8 39.141 10.7 40.641 10.7ZM41.8409 13.7C41.7409 12.9 41.141 12.7 40.641 12.7C40.141 12.7 39.6409 13 39.4409 13.7C39.1409 15.4 39.941 17.7 40.641 19.1C41.341 17.7 42.1409 15.4 41.8409 13.7Z" fill="#560505"/>
</g>
</g>
</svg>
