<svg width="9" height="16" viewBox="0 0 9 16" fill="none" xmlns="http://www.w3.org/2000/svg">
<g id="ZY4NpL.tif_1_">
<g id="Group">
<path id="Vector" d="M-0.00354004 8.6897C-0.00354004 7.82911 -0.00354004 6.96852 -0.00354004 6.11107C0.112248 5.79812 0.156058 5.7637 0.490904 5.7637C0.941539 5.7637 1.38904 5.7637 1.83968 5.7637C2.02744 5.7637 2.21208 5.7637 2.41549 5.7637C2.41549 5.66356 2.41549 5.58532 2.41549 5.50709C2.42801 4.76542 2.40298 4.02062 2.46869 3.28208C2.55632 2.29944 2.96314 1.45137 3.74549 0.816104C4.38389 0.299751 5.13495 0.0493981 5.94547 0.018104C6.6934 -0.0131901 7.44445 0.00558638 8.19238 0.00558638C8.53975 0.00558638 8.63676 0.102598 8.63676 0.446833C8.63989 1.16973 8.63676 1.89262 8.63676 2.61551C8.63676 2.98478 8.54913 3.07554 8.17673 3.0818C7.64161 3.09118 7.10961 3.09118 6.57448 3.1037C6.09255 3.11309 5.82968 3.33528 5.80777 3.80782C5.78274 4.43057 5.80152 5.05645 5.80152 5.68234C5.80152 5.69172 5.81716 5.70111 5.83594 5.72302C5.89853 5.72302 5.96737 5.72302 6.03935 5.72302C6.72469 5.72302 7.4069 5.71989 8.09224 5.72302C8.44587 5.72615 8.55853 5.83881 8.55853 6.19556C8.56165 6.99043 8.56165 7.7853 8.55853 8.58017C8.55853 8.9025 8.46151 9.00264 8.13918 9.00264C7.43507 9.00577 6.73095 9.00577 6.02683 9.00577C5.95798 9.00577 5.88601 9.00577 5.79525 9.00577C5.79525 9.10278 5.79525 9.17789 5.79525 9.25612C5.79525 11.3215 5.79525 13.3869 5.79525 15.4524C5.79525 15.6902 5.78274 15.9124 5.50735 16C4.56853 16 3.6297 16 2.69401 16C2.4593 15.9155 2.41236 15.734 2.41549 15.5056C2.41862 13.4276 2.41862 11.3528 2.41862 9.2749C2.41862 9.19979 2.41862 9.12156 2.41862 9.03081C2.32161 9.03081 2.25276 9.03081 2.18079 9.03081C1.62062 9.03081 1.06046 9.03081 0.500294 9.03081C0.162318 9.02768 0.109119 8.99012 -0.00354004 8.6897Z" fill="#6D5647"/>
</g>
</g>
</svg>
