<svg width="20" height="16" viewBox="0 0 20 16" fill="none" xmlns="http://www.w3.org/2000/svg">
<path d="M0.895707 2.02525L9.03112 10.1616C9.2718 10.4024 9.59326 10.5454 9.9333 10.5628C10.2733 10.5803 10.6077 10.4709 10.8718 10.256L10.9763 10.1616L19.1062 2.03075C19.1328 2.13158 19.1502 2.23425 19.1594 2.33966L19.1667 2.50008V13.5001C19.1669 13.9626 18.9922 14.4081 18.6777 14.7473C18.3632 15.0864 17.9321 15.2941 17.4709 15.3288L17.3334 15.3334H2.66671C2.20418 15.3336 1.75869 15.1589 1.41954 14.8444C1.08039 14.5299 0.872647 14.0988 0.837957 13.6376L0.833374 13.5001V2.50008C0.833374 2.39008 0.842541 2.28375 0.860874 2.17925L0.895707 2.02525ZM17.3334 0.666748C17.4443 0.666748 17.5534 0.675915 17.6588 0.695165L17.8146 0.730915L10.0046 8.54092L2.19187 0.729081C2.29271 0.701581 2.39721 0.683248 2.50354 0.674081L2.66671 0.666748H17.3334Z" fill="#C51D1B"/>
</svg>
