<svg width="41" height="50" viewBox="0 0 41 50" fill="none" xmlns="http://www.w3.org/2000/svg">
<path d="M40.979 24.9989C40.9806 25.629 40.819 26.2487 40.5101 26.7979C40.2012 27.347 39.7554 27.8069 39.2161 28.1327L5.79532 48.5777C5.23186 48.9227 4.5865 49.1111 3.92591 49.1233C3.26531 49.1355 2.61342 48.9712 2.03757 48.6473C1.4672 48.3284 0.99207 47.8633 0.661034 47.2999C0.329998 46.7365 0.155006 46.095 0.154053 45.4416V4.55627C0.155006 3.9028 0.329998 3.26138 0.661034 2.69797C0.99207 2.13455 1.4672 1.66948 2.03757 1.35058C2.61342 1.02664 3.26531 0.862304 3.92591 0.874538C4.5865 0.886771 5.23186 1.07513 5.79532 1.42017L39.2161 21.8651C39.7554 22.191 40.2012 22.6508 40.5101 23.2C40.819 23.7491 40.9806 24.3689 40.979 24.9989Z" fill="#C51D1B"/>
</svg>
