<svg width="20" height="16" viewBox="0 0 20 16" fill="none" xmlns="http://www.w3.org/2000/svg">
<path id="Vector" d="M0.638184 7.28672C0.79943 6.95672 1.09567 6.78048 1.41817 6.65298C2.70439 6.15424 3.99061 5.663 5.27683 5.16801C9.68674 3.48055 14.0966 1.79309 18.5065 0.105624C18.6115 0.0643748 18.7203 0.0306255 18.829 0.0118759C19.4215 -0.0706223 19.8415 0.28187 19.8228 0.908106C19.8115 1.31685 19.7215 1.72184 19.6353 2.12683C18.7278 6.39424 17.8166 10.6579 16.9016 14.9215C16.8566 15.139 16.7816 15.3565 16.6803 15.5553C16.4853 15.9378 16.1441 16.0803 15.7354 15.9565C15.5366 15.8965 15.3341 15.8065 15.1654 15.6865C13.7891 14.6891 12.4204 13.6841 11.0517 12.6791C10.9955 12.6379 10.943 12.6004 10.8755 12.5516C10.8192 12.6004 10.7705 12.6416 10.7217 12.6866C10.0205 13.3541 9.31924 14.0253 8.62176 14.6928C8.41551 14.8916 8.17552 15.0078 7.85677 15.004C7.87552 14.7341 7.89052 14.4678 7.90927 14.2016C7.99177 13.0316 8.07427 11.8579 8.16427 10.6879C8.17177 10.6016 8.22427 10.4966 8.28802 10.4404C10.943 8.04795 13.6016 5.65925 16.2603 3.2743C16.2791 3.25931 16.3053 3.24431 16.3166 3.22556C16.3653 3.13181 16.4141 3.03806 16.4591 2.94431C16.3466 2.92181 16.2266 2.86556 16.1178 2.88431C15.9866 2.90681 15.8628 2.98181 15.7466 3.05306C12.4467 5.12301 9.13925 7.19297 5.82807 9.25917C5.75682 9.30417 5.63682 9.33042 5.55808 9.30417C4.15186 8.87293 2.74564 8.43419 1.33942 7.9992C1.05442 7.9092 0.79568 7.78171 0.638184 7.51171C0.638184 7.43671 0.638184 7.36172 0.638184 7.28672Z" fill="#6D5647"/>
</svg>
