<svg width="17" height="16" viewBox="0 0 17 16" fill="none" xmlns="http://www.w3.org/2000/svg">
<g id="Frame" clip-path="url(#clip0_0_3527)">
<g id="IIBsZZ.tif_1_">
<g id="Group">
<path id="Vector" d="M6.59128 16.0003C6.41298 16.0003 6.23781 16.0003 6.05951 16.0003C5.84368 15.969 5.62784 15.9409 5.41201 15.9064C3.47261 15.5811 1.84915 14.0327 1.43312 12.1059C1.37682 11.8431 1.34554 11.5741 1.30487 11.3082C1.30487 11.1299 1.30487 10.9547 1.30487 10.7764C1.33615 10.57 1.36118 10.3667 1.39558 10.1602C1.821 7.75786 4.02315 5.94047 6.6382 6.09374C6.78522 6.10312 6.93224 6.12815 7.06988 6.14379C7.06988 7.03841 7.06988 7.91114 7.06988 8.78074C6.86342 8.74633 6.66949 8.69941 6.47555 8.6869C5.01474 8.58993 3.81983 9.85053 3.98561 11.3082C4.17955 12.9911 6.03762 13.9389 7.50155 13.0849C8.30546 12.6157 8.69334 11.8963 8.69334 10.961C8.69334 7.37937 8.69334 3.79775 8.69647 0.219254C8.69647 0.147308 8.69647 0.0784913 8.69647 0.00341797C9.5817 0.00341797 10.445 0.00341797 11.299 0.00341797C11.3365 0.278687 11.3584 0.544571 11.4116 0.8042C11.7338 2.45268 13.2009 3.79462 14.8587 3.96666C15.0339 3.98543 15.2059 4.0042 15.3811 4.02297C15.3811 4.87693 15.3811 5.73401 15.3811 6.58797C15.3405 6.59423 15.2998 6.60674 15.2591 6.60674C13.8515 6.57233 12.5721 6.15005 11.4335 5.31798C11.4022 5.29609 11.3678 5.28045 11.3178 5.25229C11.3178 5.33362 11.3178 5.39618 11.3178 5.45875C11.324 7.28866 11.3334 9.11544 11.3365 10.9454C11.3365 11.2363 11.3178 11.5303 11.274 11.815C10.9737 13.7543 9.47535 15.3809 7.55785 15.8376C7.24192 15.9127 6.91347 15.9471 6.59128 16.0003Z" fill="#6D5647"/>
</g>
</g>
</g>
<defs>
<clipPath id="clip0_0_3527">
<rect width="16" height="16" fill="white" transform="translate(0.638184)"/>
</clipPath>
</defs>
</svg>
