<svg width="24" height="24" viewBox="0 0 24 24" fill="none" xmlns="http://www.w3.org/2000/svg">
<path d="M4.99959 11H16.1696L11.2896 6.11998C10.8996 5.72998 10.8996 5.08998 11.2896 4.69998C11.3821 4.60727 11.492 4.53372 11.613 4.48354C11.7339 4.43336 11.8636 4.40753 11.9946 4.40753C12.1256 4.40753 12.2552 4.43336 12.3762 4.48354C12.4972 4.53372 12.6071 4.60727 12.6996 4.69998L19.2896 11.29C19.3823 11.3825 19.4558 11.4924 19.506 11.6134C19.5562 11.7343 19.582 11.864 19.582 11.995C19.582 12.1259 19.5562 12.2556 19.506 12.3766C19.4558 12.4976 19.3823 12.6075 19.2896 12.7L12.6996 19.29C12.607 19.3826 12.4971 19.456 12.3761 19.5061C12.2552 19.5562 12.1255 19.582 11.9946 19.582C11.8637 19.582 11.734 19.5562 11.613 19.5061C11.4921 19.456 11.3822 19.3826 11.2896 19.29C11.197 19.1974 11.1236 19.0875 11.0735 18.9665C11.0234 18.8456 10.9976 18.7159 10.9976 18.585C10.9976 18.454 11.0234 18.3244 11.0735 18.2034C11.1236 18.0825 11.197 17.9726 11.2896 17.88L16.1696 13H4.99959C4.44959 13 3.99959 12.55 3.99959 12C3.99959 11.45 4.44959 11 4.99959 11Z" fill="white"/>
</svg>
