<svg width="45" height="45" viewBox="0 0 45 45" fill="none" xmlns="http://www.w3.org/2000/svg">
<g id="fluent:location-12-filled">
<path id="Vector" d="M22.5 1.875C26.9755 1.875 31.2677 3.6529 34.4324 6.81757C37.5971 9.98225 39.375 14.2745 39.375 18.75C39.375 25.7362 34.05 33.0562 23.625 40.875C23.3004 41.1184 22.9057 41.25 22.5 41.25C22.0943 41.25 21.6996 41.1184 21.375 40.875C10.95 33.0562 5.625 25.7362 5.625 18.75C5.625 14.2745 7.4029 9.98225 10.5676 6.81757C13.7322 3.6529 18.0245 1.875 22.5 1.875ZM22.5 13.125C21.0082 13.125 19.5774 13.7176 18.5225 14.7725C17.4676 15.8274 16.875 17.2582 16.875 18.75C16.875 20.2418 17.4676 21.6726 18.5225 22.7275C19.5774 23.7824 21.0082 24.375 22.5 24.375C23.9918 24.375 25.4226 23.7824 26.4775 22.7275C27.5324 21.6726 28.125 20.2418 28.125 18.75C28.125 17.2582 27.5324 15.8274 26.4775 14.7725C25.4226 13.7176 23.9918 13.125 22.5 13.125Z" fill="#BD27C1"/>
</g>
</svg>
